<?xml version="1.0" encoding="utf-8"?>
<!-- Generator: Adobe Illustrator 16.0.0, SVG Export Plug-In . SVG Version: 6.00 Build 0)  -->
<!DOCTYPE svg PUBLIC "-//W3C//DTD SVG 1.1//EN" "http://www.w3.org/Graphics/SVG/1.1/DTD/svg11.dtd">
<svg version="1.1" id="Layer_1" xmlns="http://www.w3.org/2000/svg" xmlns:xlink="http://www.w3.org/1999/xlink" x="0px" y="0px"
	 width="475.771px" height="201.521px" viewBox="0 0 475.771 201.521" enable-background="new 0 0 475.771 201.521"
	 xml:space="preserve">
<g>
	<path fill="#54534A" d="M39.271,173.155c0-0.307-0.269-0.521-0.652-0.521h-2.226c-0.307,0-0.575,0.185-0.652,0.521l-3.722,19.556
		c-0.077,0.307-0.039,0.46-0.191,0.46c-0.154,0-0.192-0.184-0.269-0.46l-3.761-11.358c-0.269-0.829-0.806-1.229-1.804-1.229h-2.456
		c-0.998,0-1.535,0.399-1.804,1.229l-3.76,11.358c-0.077,0.276-0.115,0.46-0.269,0.46c-0.154,0-0.115-0.153-0.192-0.46
		l-3.722-19.556c-0.077-0.337-0.346-0.521-0.653-0.521h-2.226c-0.384,0-0.652,0.215-0.652,0.521c0,0.031,0,0.062,0,0.093L14.52,194
		c0.269,1.259,1.151,1.566,2.379,1.566h1.612c1.075,0,1.88-0.614,2.188-1.535l3.799-11.358c0.077-0.276,0.115-0.276,0.23-0.276
		c0.039,0,0.039,0,0.039,0s0,0,0.038,0c0.116,0,0.154,0,0.23,0.276l3.76,11.358c0.307,0.921,1.113,1.535,2.188,1.535h1.65
		c1.228,0,2.11-0.308,2.379-1.566l4.26-20.752C39.271,173.216,39.271,173.186,39.271,173.155L39.271,173.155z M59.339,194.829v-10.1
		c0-4.513-2.84-6.386-6.907-6.386c-1.65,0-4.029,0.307-5.871,0.951v-6.323c0-0.338-0.307-0.614-0.729-0.614h-1.919
		c-0.422,0-0.729,0.276-0.729,0.614v21.857c0,0.337,0.346,0.614,0.729,0.614h1.881c0.422,0,0.767-0.308,0.767-0.614v-13.262
		c1.688-0.614,4.106-0.86,5.296-0.86c2.494,0,4.105,0.952,4.105,4.022v10.1c0,0.337,0.345,0.614,0.768,0.614h1.842
		C58.994,195.443,59.339,195.166,59.339,194.829L59.339,194.829z M80.829,187.184v-1.657c0-4.359-2.84-7.184-8.443-7.184
		c-5.487,0-8.519,2.793-8.519,7.184v2.764c0,5.709,4.298,7.367,8.711,7.367c2.571,0,4.681-0.185,6.869-0.522
		c0.614-0.092,0.768-0.307,0.768-0.706v-1.043c0-0.308-0.307-0.43-0.614-0.43c-0.077,0-0.115,0-0.192,0
		c-1.765,0.214-4.604,0.337-6.83,0.337c-3.531,0-5.334-1.351-5.334-5.003v-0.43h12.855C80.56,187.861,80.829,187.583,80.829,187.184
		L80.829,187.184z M77.413,185.803H67.244v-0.276c0-3.315,1.842-4.82,5.142-4.82c3.377,0,5.027,1.352,5.027,4.82V185.803
		L77.413,185.803z M94.911,180.155v-1.259c0-0.368-0.269-0.553-0.806-0.553c-1.727,0-3.492,0.399-5.411,1.474v-0.645
		c0-0.338-0.307-0.614-0.729-0.614h-1.803c-0.422,0-0.729,0.276-0.729,0.614v15.656c0,0.337,0.346,0.614,0.729,0.614h1.88
		c0.423,0,0.768-0.308,0.768-0.614v-12.863c1.918-0.921,3.531-1.289,5.295-1.289C94.643,180.676,94.911,180.493,94.911,180.155
		L94.911,180.155z M114.827,187.184v-1.657c0-4.359-2.84-7.184-8.442-7.184c-5.488,0-8.519,2.793-8.519,7.184v2.764
		c0,5.709,4.298,7.367,8.71,7.367c2.571,0,4.681-0.185,6.869-0.522c0.614-0.092,0.768-0.307,0.768-0.706v-1.043
		c0-0.308-0.307-0.43-0.614-0.43c-0.077,0-0.115,0-0.192,0c-1.765,0.214-4.604,0.337-6.83,0.337c-3.53,0-5.334-1.351-5.334-5.003
		v-0.43h12.855C114.558,187.861,114.827,187.583,114.827,187.184L114.827,187.184z M111.411,185.803h-10.169v-0.276
		c0-3.315,1.842-4.82,5.142-4.82c3.376,0,5.027,1.352,5.027,4.82V185.803L111.411,185.803z M143.606,194.829v-10.714
		c0-3.622-2.149-5.771-7.483-5.771c-2.609,0-4.375,0.185-5.948,0.399c-0.538,0.062-0.806,0.245-0.806,0.583v1.074
		c0,0.399,0.345,0.491,0.69,0.491c0.078,0,0.116,0,0.192,0c1.535-0.122,3.377-0.245,5.871-0.245c2.993,0,4.106,0.89,4.106,3.469
		v1.228h-2.84c-6.83,0-9.248,1.658-9.248,4.974v0.368c0,3.838,2.993,4.974,6.255,4.974c2.149,0,4.067-0.645,5.909-1.504v0.675
		c0,0.337,0.346,0.614,0.768,0.614h1.765C143.261,195.443,143.606,195.166,143.606,194.829L143.606,194.829z M140.229,192.219
		c-1.842,0.798-3.415,1.228-5.181,1.228c-2.226,0-3.53-0.583-3.53-2.793v-0.368c0-2.18,1.228-3.009,5.871-3.009h2.84V192.219
		L140.229,192.219z M158.303,180.155v-1.259c0-0.368-0.269-0.553-0.806-0.553c-1.727,0-3.492,0.399-5.411,1.474v-0.645
		c0-0.338-0.307-0.614-0.729-0.614h-1.803c-0.422,0-0.729,0.276-0.729,0.614v15.656c0,0.337,0.346,0.614,0.729,0.614h1.88
		c0.422,0,0.768-0.308,0.768-0.614v-12.863c1.919-0.921,3.53-1.289,5.295-1.289C158.034,180.676,158.303,180.493,158.303,180.155
		L158.303,180.155z M178.219,187.184v-1.657c0-4.359-2.84-7.184-8.442-7.184c-5.487,0-8.519,2.793-8.519,7.184v2.764
		c0,5.709,4.298,7.367,8.711,7.367c2.571,0,4.681-0.185,6.869-0.522c0.614-0.092,0.768-0.307,0.768-0.706v-1.043
		c0-0.308-0.308-0.43-0.614-0.43c-0.077,0-0.115,0-0.191,0c-1.766,0.214-4.605,0.337-6.831,0.337c-3.531,0-5.334-1.351-5.334-5.003
		v-0.43h12.855C177.95,187.861,178.219,187.583,178.219,187.184L178.219,187.184z M174.803,185.803h-10.169v-0.276
		c0-3.315,1.842-4.82,5.142-4.82c3.377,0,5.027,1.352,5.027,4.82V185.803L174.803,185.803z M208.687,179.08
		c0-0.307-0.23-0.521-0.615-0.521h-2.148c-0.345,0-0.651,0.215-0.729,0.46l-4.682,14.029h-0.614c-0.269,0-0.538-0.061-0.729-0.675
		l-4.528-13.323c-0.077-0.245-0.345-0.491-0.652-0.491h-2.11c-0.461,0-0.691,0.215-0.691,0.521c0,0.062,0,0.154,0.038,0.215
		l5.104,14.029c0.691,1.903,1.688,2.119,2.839,2.119h0.538l-0.384,1.259c-0.653,2.148-1.612,2.609-3.799,2.609
		c-0.844,0-2.571-0.123-3.415-0.185c-0.039,0-0.077,0-0.115,0c-0.422,0-0.729,0.153-0.729,0.491v1.136
		c0,0.308,0.346,0.398,0.806,0.491c0.806,0.153,2.149,0.276,3.224,0.276c4.413,0,5.833-1.229,7.022-4.544l6.331-17.683
		C208.687,179.234,208.687,179.141,208.687,179.08L208.687,179.08z M229.177,188.167v-2.333c0-4.514-2.916-7.491-8.557-7.491
		s-8.519,2.978-8.519,7.491v2.333c0,4.512,2.878,7.49,8.519,7.49S229.177,192.679,229.177,188.167L229.177,188.167z
		 M225.801,188.167c0,3.161-1.612,5.126-5.181,5.126c-3.607,0-5.143-1.996-5.143-5.126v-2.333c0-3.162,1.574-5.128,5.143-5.128
		c3.607,0,5.181,1.996,5.181,5.128V188.167L225.801,188.167z M249.86,194.829v-15.656c0-0.338-0.345-0.614-0.729-0.614h-1.881
		c-0.422,0-0.768,0.307-0.768,0.614v12.955c-1.766,0.706-3.568,1.196-5.181,1.196c-2.915,0-4.22-0.951-4.22-4.052v-10.1
		c0-0.338-0.346-0.614-0.768-0.614h-1.843c-0.421,0-0.767,0.276-0.767,0.614v10.1c0,4.083,2.072,6.386,6.676,6.386
		c2.265,0,3.991-0.461,6.102-1.412v0.583c0,0.337,0.308,0.614,0.729,0.614h1.92C249.554,195.443,249.86,195.166,249.86,194.829
		L249.86,194.829z M275.608,173.769v-1.013c0-0.276-0.307-0.399-0.729-0.491c-0.499-0.093-1.113-0.184-2.149-0.184
		c-3.377,0-5.372,0.981-5.372,4.267v2.21h-3.723c-0.422,0-0.729,0.246-0.729,0.553v0.829c0,0.307,0.307,0.521,0.729,0.553
		l3.723,0.337v13.999c0,0.307,0.345,0.614,0.768,0.614h1.881c0.383,0,0.729-0.308,0.729-0.614V180.83h4.029
		c0.422,0,0.729-0.214,0.729-0.521v-1.197c0-0.307-0.307-0.553-0.729-0.553h-4.029v-2.21c0-1.689,0.536-2.119,2.341-2.119h1.841
		C275.34,174.229,275.608,174.107,275.608,173.769L275.608,173.769z M288.655,180.155v-1.259c0-0.368-0.27-0.553-0.806-0.553
		c-1.728,0-3.492,0.399-5.411,1.474v-0.645c0-0.338-0.307-0.614-0.729-0.614h-1.803c-0.423,0-0.73,0.276-0.73,0.614v15.656
		c0,0.337,0.346,0.614,0.73,0.614h1.879c0.422,0,0.768-0.308,0.768-0.614v-12.863c1.919-0.921,3.531-1.289,5.296-1.289
		C288.386,180.676,288.655,180.493,288.655,180.155L288.655,180.155z M308.687,188.167v-2.333c0-4.514-2.917-7.491-8.557-7.491
		c-5.642,0-8.521,2.978-8.521,7.491v2.333c0,4.512,2.879,7.49,8.521,7.49C305.77,195.658,308.687,192.679,308.687,188.167
		L308.687,188.167z M305.309,188.167c0,3.161-1.61,5.126-5.179,5.126c-3.608,0-5.143-1.996-5.143-5.126v-2.333
		c0-3.162,1.574-5.128,5.143-5.128c3.605,0,5.179,1.996,5.179,5.128V188.167L305.309,188.167z M338.616,194.829v-10.867
		c0-4.268-2.762-5.648-6.215-5.648c-1.996,0-4.26,0.46-6.37,1.258c-0.96-0.89-2.188-1.258-3.839-1.258
		c-2.109,0-4.066,0.675-5.602,1.443v-0.584c0-0.338-0.307-0.614-0.729-0.614h-1.92c-0.422,0-0.729,0.276-0.729,0.614v15.656
		c0,0.337,0.27,0.614,0.652,0.614h2.034c0.423,0,0.69-0.308,0.69-0.614v-12.955c1.611-0.645,3.301-1.197,4.682-1.197
		c1.995,0,2.954,0.553,2.954,3.224v10.929c0,0.337,0.27,0.614,0.653,0.614h2.033c0.422,0,0.691-0.308,0.691-0.614V183.9
		c0-0.921-0.115-1.719-0.346-2.395c1.496-0.461,3.109-0.829,4.489-0.829c1.995,0,3.493,0.706,3.493,3.285v10.867
		c0,0.337,0.345,0.614,0.767,0.614h1.843C338.272,195.443,338.616,195.166,338.616,194.829L338.616,194.829z"/>
	<path fill="#54534A" d="M92.186,93.149c0-0.693-0.908-1.08-1.928-1.08h-12.02c-0.907,0-1.814,0.54-1.927,1.389l-8.164,46.032
		c-0.114,0.694-0.114,1.156-0.567,1.156c-0.454,0-0.454-0.462-0.68-1.156l-9.751-27.064c-0.68-1.851-2.268-3.47-7.144-3.47h-7.824
		c-4.875,0-6.463,1.619-7.144,3.47l-9.751,27.064c-0.227,0.694-0.227,1.156-0.681,1.156s-0.454-0.462-0.566-1.156l-8.165-46.032
		c-0.113-0.849-1.021-1.389-1.928-1.389H1.928C0.907,92.07,0,92.456,0,93.149c0,0.077,0,0.154,0,0.232l10.659,50.349
		c1.021,4.858,4.309,6.246,10.205,6.246h6.123c5.103,0,7.824-1.696,9.412-6.169l8.958-25.444c0.227-0.694,0.34-0.848,0.794-0.848
		s0.454,0.154,0.68,0.848l8.958,25.444c1.587,4.473,4.309,6.169,9.411,6.169h6.123c5.896,0,9.185-1.388,10.205-6.246l10.659-50.349
		C92.186,93.304,92.186,93.227,92.186,93.149L92.186,93.149z M168.27,148.049c0-0.077-0.113-0.231-0.113-0.386l-18.596-48.345
		c-2.722-7.171-10.886-7.865-15.761-7.865c-4.876,0-13.04,0.693-15.761,7.865l-18.596,48.345c0,0.154-0.113,0.309-0.113,0.386
		c0,0.771,0.906,1.311,2.041,1.311h12.019c1.021,0,1.928-0.617,2.154-1.311l5.216-14.65h26.08l5.216,14.65
		c0.227,0.694,1.133,1.311,2.154,1.311h12.02C167.362,149.359,168.27,148.82,168.27,148.049L168.27,148.049z M143.777,124.608
		h-19.957l8.164-22.899c0.341-0.926,0.681-1.234,1.815-1.234s1.474,0.308,1.814,1.234L143.777,124.608L143.777,124.608z
		 M230.52,93.227c0-0.617-0.793-1.157-1.927-1.157H216.12c-1.021,0-1.814,0.617-2.155,1.234l-13.606,22.978
		c-0.793,1.311-1.475,1.542-2.041,1.542c-0.454,0-1.134-0.231-1.928-1.542l-13.606-22.978c-0.34-0.617-1.134-1.234-2.155-1.234
		h-12.586c-1.133,0-1.814,0.54-1.814,1.157c0,0.155,0.113,0.386,0.227,0.617l17.121,26.756c2.155,3.393,4.422,4.935,6.917,5.628
		v21.59c0,0.848,0.908,1.542,2.155,1.542h11.338c1.248,0,2.155-0.694,2.155-1.542v-21.59c2.494-0.693,4.762-2.235,6.916-5.628
		l17.234-26.756C230.407,93.613,230.52,93.458,230.52,93.227L230.52,93.227z M291.862,99.086v-4.934
		c0-1.079-0.567-1.465-2.268-1.619c-3.629-0.386-8.051-1.08-21.543-1.08c-14.742,0-26.194,2.699-26.194,15.806v40.558
		c0,0.848,1.021,1.542,2.267,1.542h11.113c1.248,0,2.269-0.694,2.269-1.542v-23.594h30.728c1.248,0,2.269-0.694,2.269-1.542v-5.551
		c0-0.849-1.021-1.542-2.269-1.542h-30.728v-8.328c0-5.088,2.382-6.631,8.957-6.631h23.132
		C290.841,100.629,291.862,99.935,291.862,99.086L291.862,99.086z"/>
	<path fill="#54534A" d="M435.573,18.228c0,0,0.001-2.36-2.329-2.791L349.806,0.031c0,0-2.33-0.43-2.328,1.931l0.001,3.485
		c0,0,0.001,2.36,2.331,2.791l19.427,3.587v11.163c-8.854,4.791-14.669,12.8-14.693,21.889c-0.021,8.599,5.151,16.253,13.186,21.143
		c-7.77,2.277-13.96,5.966-16.306,10.993l-21.598,69.494c-0.486,1.635,0.322,2.617,1.812,2.62l11.29,0.016
		c1.4,0,2.67-0.577,3.021-1.812l18.693-63.927c6.91-13.135,37.981-11.839,41.594,0.092l7.598,28.134
		c0.222,1.479,1.484,1.824,2.971,1.826l9.183,0.014c1.818,0.004,3.305-0.889,2.982-2.61l-8.626-33.709
		c-1.102-4.852-5.611-8.391-11.847-10.677c8.406-4.833,13.875-12.633,13.896-21.448c0.017-6.82-3.232-13.046-8.585-17.771v-7.199
		l19.434,3.588c0,0,2.33,0.431,2.331-1.93L435.573,18.228L435.573,18.228z M408.01,44.994c-0.021,8.479-8.786,15.333-19.579,15.309
		c-10.792-0.024-19.521-6.917-19.502-15.394c0.021-8.479,8.785-15.333,19.576-15.308C399.299,29.624,408.031,36.516,408.01,44.994
		L408.01,44.994z"/>
	<path fill="#54B948" d="M468.984,73.105c-4.16,6.908-36.276,62.559-51.014,62.559c-10.04,0-19.112-16.119-24.129-23.341
		c-0.972-1.4-2.499-0.806-2.499-0.806l-12.311,7.545c0,0-1.403,0.738-0.759,2.445c3.007,7.964,23.89,33.114,37.098,32.888
		c20.698-0.355,45.061-50.162,59.536-77.242c1.331-2.486,1.41-2.534-1.823-4.255C470.36,71.447,470.046,71.343,468.984,73.105
		L468.984,73.105z"/>
</g>
</svg>
